<?xml version="1.0" encoding="UTF-8"?>
<svg id="Layer_1" data-name="Layer 1" xmlns="http://www.w3.org/2000/svg" viewBox="0 0 1000 600">
  <defs>
    <style>
      .cls-1 {
        fill: #fff;
      }
    </style>
  </defs>
  <path class="cls-1" d="m306.63,242.93h7.6c-2.2-40.88-34.87-73.65-75.71-76.02v7.01c36.7,2.65,65.94,32.19,68.11,69.01"/>
  <path class="cls-1" d="m306.57,252.42c-2.49,36.51-31.58,65.7-68.06,68.33v7.02c40.62-2.36,73.13-34.79,75.66-75.35h-7.61Z"/>
  <path class="cls-1" d="m159.72,252.42h-6.34c2.52,40.56,35.04,72.99,75.65,75.35v-6.93c-37.06-2.03-66.8-31.49-69.31-68.42"/>
  <path class="cls-1" d="m157.56,221.24c-2.36,6.86-3.82,14.13-4.24,21.7h6.34c.39-6.71,1.7-13.16,3.78-19.26l-5.88-2.44Z"/>
  <path class="cls-1" d="m167.07,214.91c2.92-5.93,6.6-11.42,10.93-16.32l-4.59-4.58c-4.89,5.53-9.02,11.73-12.26,18.45l5.92,2.46Z"/>
  <path class="cls-1" d="m209.84,177.5c6.1-2.04,12.53-3.31,19.2-3.67v-6.92c-7.58.44-14.89,1.94-21.77,4.35l2.57,6.24Z"/>
  <path class="cls-1" d="m198.51,174.9c-6.71,3.28-12.91,7.46-18.42,12.38l4.64,4.63c4.91-4.3,10.41-7.94,16.34-10.82l-2.56-6.19Z"/>
  <path class="cls-1" d="m200.44,206.55h78.35l12.41,16.5h-90.76c-4.48,0-8.13,3.77-8.13,8.25v33c0,4.48,3.65,8.13,8.13,8.13h66c4.36,0,8.37-3.65,8.37-8.13v-8.25h-49.62v-16.51h66v24.75c0,13.55-11.08,24.75-24.75,24.75h-66c-13.55,0-24.75-11.2-24.75-24.75v-33c0-13.67,11.2-24.75,24.75-24.75"/>
  <path class="cls-1" d="m482.69,206.55h90.76v16.5h-90.76c-4.59,0-8.25,3.77-8.25,8.25v8.25h99v16.51h-99v8.25c0,4.48,3.65,8.13,8.25,8.13h90.76v16.62h-90.76c-13.67,0-24.87-11.2-24.87-24.75v-33c0-13.67,11.2-24.75,24.87-24.75"/>
  <path class="cls-1" d="m621.87,206.55h90.76v16.5h-90.76c-4.6,0-8.25,3.77-8.25,8.25v8.25h99.01v16.51h-99.01v8.25c0,4.48,3.65,8.13,8.25,8.13h90.76v16.62h-90.76c-13.67,0-24.87-11.2-24.87-24.75v-33c0-13.67,11.2-24.75,24.87-24.75"/>
  <path class="cls-1" d="m835.18,206.55h16.62v68.12c-.12,7.9-6.6,14.38-14.5,14.38-3.18,0-6.37-1.18-8.72-3.06l-75.91-60.58v63.65h-16.5v-68.12c0-8.01,6.48-14.38,14.5-14.38,3.18,0,6.25,1.06,8.72,3.06l75.79,60.58v-63.65Z"/>
  <path class="cls-1" d="m550.82,435.64h-97.26v-88.42h97.26c14.65,0,26.53,11.87,26.53,26.52v35.37c0,14.52-11.88,26.52-26.53,26.52m-79.58-17.81h79.58c4.93,0,8.84-3.92,8.84-8.72v-35.37c0-4.92-3.91-8.84-8.84-8.84h-79.58v52.93Z"/>
  <path class="cls-1" d="m438.41,239.55v-8.25c0-13.67-10.96-24.75-24.63-24.75h-99.03l8.27,16.41h35.96v.09h54.8c4.48,0,8.25,3.77,8.25,8.25v8.25c0,4.6-3.77,8.25-8.25,8.25h-74.26v-.06h-16.5v41.31h16.5v-24.75h62.23l16.5,24.75h19.8l-17.21-25.93c10.26-2.95,17.56-12.38,17.56-23.57"/>
  <path class="cls-1" d="m299.36,382.59v-8.84c0-14.65-11.75-26.52-26.4-26.52h-106.13l8.87,17.58h38.54v.1h58.72c4.8,0,8.84,4.04,8.84,8.84v8.84c0,4.93-4.04,8.84-8.84,8.84h-79.58v-.06h-17.68v44.27h17.68v-26.52h66.69l17.68,26.52h21.22l-18.44-27.79c10.99-3.16,18.82-13.26,18.82-25.26"/>
  <path class="cls-1" d="m853.33,382.59v-8.84c0-14.65-11.75-26.52-26.4-26.52h-106.13l8.86,17.58h38.54v.1h58.72c4.8,0,8.84,4.04,8.84,8.84v8.84c0,4.93-4.04,8.84-8.84,8.84h-79.58v-.06h-17.68v44.27h17.68v-26.52h66.7l17.68,26.52h21.22l-18.44-27.79c10.99-3.16,18.82-13.26,18.82-25.26"/>
  <path class="cls-1" d="m376.03,364.91l42.74,70.74h20.29l-47.87-79.83c-3.03-5.05-8.72-8.59-15.16-8.59h-7.58c-6.44,0-12.13,3.54-15.16,8.59l-47.87,79.83h20.46l42.57-70.74h7.58Z"/>
  <path class="cls-1" d="m655.23,364.91l42.74,70.74h20.29l-47.88-79.83c-3.03-5.05-8.72-8.59-15.15-8.59h-7.58c-6.44,0-12.12,3.54-15.16,8.59l-47.87,79.83h20.46l42.57-70.74h7.58Z"/>
  <rect class="cls-1" x="774.55" y="314.16" width="20.84" height="8.53"/>
  <rect class="cls-1" x="802.97" y="314.16" width="20.84" height="8.53"/>
  <polygon class="cls-1" points="766.97 314.16 303.93 314.16 294.8 322.69 766.97 322.69 766.97 314.16"/>
  <rect class="cls-1" x="831.39" y="314.16" width="21.93" height="8.53"/>
</svg>